<svg xmlns="http://www.w3.org/2000/svg" width="800" height="330" viewBox="0 0 800 330" class="diagram">
<style>
.diagram-label { font-size: 12px; font-family: sans-serif; fill: #333; }
</style>
<defs><marker id="arch-arrow" markerWidth="10" markerHeight="7" refX="9" refY="3.5" orient="auto"><polygon points="0 0, 10 3.5, 0 7" fill="#546E7A"/></marker></defs>
<rect x="60" y="150.0" width="140" height="44" rx="8" ry="8" fill="#F5F5F5" stroke="#546E7A" stroke-width="1.4"/>
<text x="130.0" y="176.0" text-anchor="middle" font-size="12px" font-family="sans-serif" fill="#333">Structured spec</text>
<rect x="240" y="150.0" width="140" height="44" rx="8" ry="8" fill="#E3F2FD" stroke="#546E7A" stroke-width="1.4"/>
<text x="310.0" y="176.0" text-anchor="middle" font-size="12px" font-family="sans-serif" fill="#333">Renderer</text>
<rect x="420" y="150.0" width="140" height="44" rx="8" ry="8" fill="#E3F2FD" stroke="#546E7A" stroke-width="1.4"/>
<text x="490.0" y="176.0" text-anchor="middle" font-size="12px" font-family="sans-serif" fill="#333">Visual checks</text>
<path d="M 600 158.0 A 70.0 8 0 1 1 740 158.0 L 740 192.0 A 70.0 8 0 1 1 600 192.0 Z M 600 158.0 A 70.0 8 0 1 0 740 158.0" fill="#E8F5E9" stroke="#546E7A" stroke-width="1.4"/>
<text x="670.0" y="180.0" text-anchor="middle" font-size="12px" font-family="sans-serif" fill="#333">SVG / MP4</text>
<line x1="200.0" y1="172.0" x2="240.0" y2="172.0" stroke="#546E7A" stroke-width="1.6" marker-end="url(#arch-arrow)"/>
<text x="220.0" y="164.0" text-anchor="middle" font-size="10px" font-family="sans-serif" fill="#666">data</text>
<line x1="380.0" y1="172.0" x2="420.0" y2="172.0" stroke="#546E7A" stroke-width="1.6" marker-end="url(#arch-arrow)"/>
<text x="400.0" y="164.0" text-anchor="middle" font-size="10px" font-family="sans-serif" fill="#666">boxes</text>
<line x1="560.0" y1="173.16666666666666" x2="600.0" y2="173.83333333333334" stroke="#546E7A" stroke-width="1.6" marker-end="url(#arch-arrow)"/>
<text x="580.0" y="165.5" text-anchor="middle" font-size="10px" font-family="sans-serif" fill="#666">pass</text>
<text x="400.0" y="320" text-anchor="middle" font-size="13px" font-family="sans-serif" fill="#333">One contract for figures and animation</text>
</svg>
